<svg width="12" height="16" viewBox="0 0 12 16" fill="none" xmlns="http://www.w3.org/2000/svg">
<path d="M6.00004 0C2.89919 0 0.385254 2.51394 0.385254 5.61475C0.385254 5.85214 0.404297 6.08349 0.433323 6.31283C0.913094 10.6987 5.63545 15.7536 5.63545 15.7536C5.7196 15.8478 5.80071 15.9058 5.87883 15.9479L5.88285 15.9499L6.0401 16L6.19736 15.9499L6.20138 15.9479C6.27949 15.9058 6.36064 15.8447 6.44476 15.7536C6.44476 15.7536 11.099 10.6897 11.5677 6.30285C11.5958 6.0765 11.6148 5.84713 11.6148 5.61377C11.6138 2.51394 9.10089 0 6.00004 0ZM6.00004 9.22641C4.00894 9.22641 2.38842 7.60589 2.38842 5.61479C2.38842 3.62368 4.00894 2.00316 6.00004 2.00316C7.99114 2.00316 9.61068 3.62368 9.61068 5.61479C9.61068 7.60589 7.99114 9.22641 6.00004 9.22641Z" fill="#254868"/>
</svg>
