<svg width="24" height="24" viewBox="0 0 24 24" fill="none" xmlns="http://www.w3.org/2000/svg">
<path d="M12 1.5C17.7891 1.5 22.5 6.21094 22.5 12C22.5 17.7891 17.7891 22.5 12 22.5C6.21094 22.5 1.5 17.7891 1.5 12C1.5 6.21094 6.21094 1.5 12 1.5ZM12 0C5.37305 0 0 5.37305 0 12C0 18.627 5.37305 24 12 24C18.627 24 24 18.627 24 12C24 5.37305 18.627 0 12 0ZM18.69 16.0122L18.6225 15.8071C18.4643 15.3355 17.9429 14.8433 17.4624 14.7114L15.6885 14.2266C15.208 14.0962 14.5225 14.272 14.1695 14.625L13.5279 15.2666C11.1959 14.6353 9.36628 12.8057 8.73638 10.4737L9.378 9.83203C9.72956 9.48047 9.90534 8.79492 9.77498 8.313L9.29152 6.53906C9.16116 6.05859 8.66602 5.53711 8.19436 5.37891L7.99219 5.3115C7.51903 5.1533 6.84375 5.31295 6.49219 5.66602L5.53125 6.62695C5.35988 6.79688 5.25 7.28466 5.25 7.28616C5.21775 10.336 6.41311 13.273 8.56936 15.4307C10.7198 17.5811 13.6465 18.775 16.686 18.7485C16.7022 18.7485 17.2046 18.6416 17.376 18.4702L18.3369 17.5093C18.6885 17.1592 18.8467 16.4839 18.69 16.0122Z" fill="#FDDD3D"/>
</svg>
